<?xml version="1.0" encoding="UTF-8"?>
<svg version="1.1" xmlns="http://www.w3.org/2000/svg" width="512" height="512">
<path d="M0 0 C1.43883545 0.30599121 1.43883545 0.30599121 2.90673828 0.61816406 C40.04273686 8.74443609 74.19490909 25.11983286 103 50 C103.91007812 50.77988281 104.82015625 51.55976562 105.7578125 52.36328125 C108.22066132 54.52916276 110.61995399 56.74344694 113 59 C113.49564453 59.46841309 113.99128906 59.93682617 114.50195312 60.41943359 C122.84733145 68.36173927 130.13206378 76.76105198 137 86 C137.4237793 86.55768066 137.84755859 87.11536133 138.28417969 87.68994141 C145.5421633 97.24916887 151.47749079 107.35342137 157 118 C157.39074707 118.74878418 157.78149414 119.49756836 158.18408203 120.26904297 C174.31911338 151.58441015 181.45896006 185.64086116 181.3125 220.6875 C181.31034485 221.61642059 181.3081897 222.54534119 181.30596924 223.50241089 C181.25610813 236.89069476 180.89233116 249.88139636 178 263 C177.69400879 264.46397217 177.69400879 264.46397217 177.38183594 265.95751953 C169.43181445 303.53786127 153.15637307 337.87513081 128 367 C127.22011719 367.91007812 126.44023437 368.82015625 125.63671875 369.7578125 C123.47083724 372.22066132 121.25655306 374.61995399 119 377 C118.53158691 377.49564453 118.06317383 377.99128906 117.58056641 378.50195312 C109.63826073 386.84733145 101.23894802 394.13206378 92 401 C91.44231934 401.4237793 90.88463867 401.84755859 90.31005859 402.28417969 C80.75083113 409.5421633 70.64657863 415.47749079 60 421 C58.87682373 421.58612061 58.87682373 421.58612061 57.73095703 422.18408203 C26.43945769 438.30681564 -7.60301197 445.45916021 -42.625 445.3125 C-43.55197693 445.31034485 -44.47895386 445.3081897 -45.434021 445.30596924 C-59.1467391 445.25482554 -72.54855562 444.90632016 -86 442 C-87.43883545 441.69400879 -87.43883545 441.69400879 -88.90673828 441.38183594 C-131.28713148 432.10796108 -168.76904793 411.97821799 -200 382 C-200.51304687 381.51418457 -201.02609375 381.02836914 -201.5546875 380.52783203 C-209.54210011 372.94333776 -216.42042415 364.82322342 -223 356 C-223.63784424 355.16130371 -223.63784424 355.16130371 -224.28857422 354.30566406 C-231.54470107 344.74799756 -237.47860829 334.64442424 -243 324 C-243.58612061 322.87682373 -243.58612061 322.87682373 -244.18408203 321.73095703 C-260.31911338 290.41558985 -267.45896006 256.35913884 -267.3125 221.3125 C-267.31034485 220.38357941 -267.3081897 219.45465881 -267.30596924 218.49758911 C-267.25610813 205.10930524 -266.89233116 192.11860364 -264 179 C-263.79600586 178.02401855 -263.59201172 177.04803711 -263.38183594 176.04248047 C-255.43181445 138.46213873 -239.15637307 104.12486919 -214 75 C-213.22011719 74.08992188 -212.44023437 73.17984375 -211.63671875 72.2421875 C-209.47083724 69.77933868 -207.25655306 67.38004601 -205 65 C-204.53158691 64.50435547 -204.06317383 64.00871094 -203.58056641 63.49804688 C-195.63826073 55.15266855 -187.23894802 47.86793622 -178 41 C-177.44231934 40.5762207 -176.88463867 40.15244141 -176.31005859 39.71582031 C-149.38700168 19.27409458 -117.876025 6.87156144 -85 0 C-84.17999512 -0.18079102 -83.35999023 -0.36158203 -82.51513672 -0.54785156 C-56.85414484 -6.02757091 -25.5958949 -5.53025112 0 0 Z " fill="#FEEE93" transform="translate(299,35)"/>
<path d="M0 0 C0.6810379 0.00626404 1.36207581 0.01252808 2.06375122 0.01898193 C22.37408268 0.21019826 40.63772241 2.35437954 57.6875 14.3125 C58.91339844 15.15361328 58.91339844 15.15361328 60.1640625 16.01171875 C71.00155834 24.01401831 81.60009481 37.52453188 85.359375 50.66015625 C85.81675506 54.35731172 85.8717688 58.03088508 85.875 61.75 C85.88724609 62.48798828 85.89949219 63.22597656 85.91210938 63.98632812 C85.92781065 69.87430743 85.01645597 74.31906604 81.6875 79.3125 C81.36228946 81.30843196 81.36228946 81.30843196 81.36865234 83.50854492 C81.34878265 84.34918991 81.32891296 85.1898349 81.30844116 86.05595398 C81.29688995 86.95916885 81.28533875 87.86238373 81.2734375 88.79296875 C81.25407135 89.72095779 81.2347052 90.64894684 81.2147522 91.60505676 C81.15495756 94.56994425 81.10857145 97.53487057 81.0625 100.5 C81.02432012 102.50978259 80.98526838 104.51954881 80.9453125 106.52929688 C80.84925607 111.45689842 80.76522451 116.38457658 80.6875 121.3125 C81.63294678 121.45276611 82.57839355 121.59303223 83.55249023 121.73754883 C90.53615431 123.01833139 95.6444506 128.76774654 99.6875 134.3125 C104.36753836 142.66971135 105.16798152 151.7841116 103.0390625 161.171875 C99.71844984 170.31065513 93.39476786 177.06211431 84.6875 181.3125 C80.2000169 182.93727836 76.44972012 183.54480342 71.6875 183.3125 C71.67332031 183.87195313 71.65914062 184.43140625 71.64453125 185.0078125 C70.59018767 202.7321829 61.11128999 217.90728909 48.54296875 229.890625 C37.43427419 239.3125 37.43427419 239.3125 32.6875 239.3125 C32.6875 248.2225 32.6875 257.1325 32.6875 266.3125 C35.3275 266.6425 37.9675 266.9725 40.6875 267.3125 C43.23972021 267.81361252 45.78543035 268.34882342 48.32421875 268.9140625 C49.03325348 269.07121231 49.74228821 269.22836212 50.47280884 269.39027405 C52.77446733 269.90195359 55.07476652 270.41945516 57.375 270.9375 C58.98786627 271.29796909 60.60074072 271.65840158 62.21362305 272.01879883 C73.35764605 274.51846872 84.46754635 277.14145006 95.55615234 279.87744141 C102.03646211 281.46815395 108.52168237 282.91193264 115.06469727 284.21948242 C129.39192572 287.11400441 142.73915098 291.13053541 153.6875 301.3125 C154.39390625 301.96347656 155.1003125 302.61445313 155.828125 303.28515625 C159.99847196 307.29332305 163.71955317 311.33400854 166.6875 316.3125 C166.36901421 319.73169951 164.95531411 321.42918047 162.58203125 323.81640625 C161.93540527 324.46915527 161.2887793 325.1219043 160.62255859 325.79443359 C159.57189209 326.82431396 159.57189209 326.82431396 158.5 327.875 C157.77893066 328.58736816 157.05786133 329.29973633 156.31494141 330.03369141 C150.33941704 335.84923904 144.10161125 341.12410722 137.38769531 346.06103516 C135.69113496 347.30982441 134.01354025 348.58137103 132.3359375 349.85546875 C123.30183001 356.61571188 113.69325992 362.12239121 103.6875 367.3125 C102.56432373 367.89862061 102.56432373 367.89862061 101.41845703 368.49658203 C70.12695769 384.61931564 36.08448803 391.77166021 1.0625 391.625 C0.13552307 391.62284485 -0.79145386 391.6206897 -1.746521 391.61846924 C-15.4592391 391.56732554 -28.86105562 391.21882016 -42.3125 388.3125 C-43.27172363 388.10850586 -44.23094727 387.90451172 -45.21923828 387.69433594 C-86.73317002 378.6100642 -124.14113266 359.10339344 -154.83154297 329.72167969 C-156.25911605 328.3632966 -157.70927416 327.02877066 -159.16015625 325.6953125 C-160.41119141 324.51582031 -160.41119141 324.51582031 -161.6875 323.3125 C-162.41710937 322.631875 -163.14671875 321.95125 -163.8984375 321.25 C-165.3125 319.3125 -165.3125 319.3125 -165.234375 317.33203125 C-158.82927993 303.30053061 -144.50726866 294.12709318 -130.79516602 288.53955078 C-125.02542539 286.50669299 -119.1149845 285.26689477 -113.1362915 284.03067017 C-109.17788199 283.21113441 -105.22806768 282.35178107 -101.27734375 281.49609375 C-100.45983643 281.31986984 -99.6423291 281.14364594 -98.80004883 280.96208191 C-89.80655238 279.01069716 -80.87224199 276.82735193 -71.9375 274.625 C-68.87391444 273.87151236 -65.81011333 273.11890826 -62.74609375 272.3671875 C-61.65850769 272.10028358 -61.65850769 272.10028358 -60.5489502 271.82798767 C-51.16436212 269.53228609 -41.74200266 267.41548261 -32.3125 265.3125 C-31.9825 256.7325 -31.6525 248.1525 -31.3125 239.3125 C-32.9625 238.6525 -34.6125 237.9925 -36.3125 237.3125 C-53.57078756 227.10255509 -63.42714629 212.05469936 -69.3125 193.3125 C-69.6425 192.3225 -69.9725 191.3325 -70.3125 190.3125 C-70.35204234 187.97950175 -70.35651732 185.64541811 -70.3125 183.3125 C-71.446875 183.395 -72.58125 183.4775 -73.75 183.5625 C-81.85475873 183.53391179 -89.65002081 178.91537415 -95.3125 173.3125 C-102.02828524 164.16950192 -104.39916484 155.61381429 -103.3125 144.3125 C-102.42017452 140.98655958 -101.10219012 138.24513863 -99.3125 135.3125 C-98.88839844 134.61382812 -98.46429688 133.91515625 -98.02734375 133.1953125 C-94.12632284 127.43614514 -88.64124877 122.24789398 -81.67211914 120.74194336 C-80.89344482 120.60022705 -80.11477051 120.45851074 -79.3125 120.3125 C-79.35682418 114.47699252 -79.42683737 108.64254941 -79.52001953 102.80761719 C-79.54813547 100.82528178 -79.56939638 98.84283621 -79.58349609 96.86035156 C-79.60505592 94.00008125 -79.65177215 91.1411223 -79.703125 88.28125 C-79.70435364 87.40384155 -79.70558228 86.52643311 -79.70684814 85.62243652 C-79.83028163 80.36258156 -80.69640999 76.66366947 -83.36126709 72.10266113 C-87.56351459 64.19429288 -86.2935112 51.30724845 -84.62890625 42.83203125 C-81.65467475 34.08211367 -75.9869529 26.51720456 -68.3125 21.3125 C-64.66449532 19.53665614 -61.79220036 19.06315827 -57.75 19.125 C-56.82058594 19.13144531 -55.89117187 19.13789062 -54.93359375 19.14453125 C-52.58611898 19.29496555 -50.56195456 19.65089572 -48.3125 20.3125 C-48.06628906 19.57128906 -47.82007813 18.83007812 -47.56640625 18.06640625 C-44.56335678 11.47092376 -37.58372053 6.70563483 -30.92041016 4.19189453 C-20.62313021 0.7196232 -10.81725978 -0.14808113 0 0 Z " fill="#FEAA90" transform="translate(255.3125,88.6875)"/>
<path d="M0 0 C0.09704224 1.40016357 0.09704224 1.40016357 0.19604492 2.82861328 C2.70243684 38.32182194 8.37524722 72.69058715 18 107 C20.1798056 104.8201944 20.4306017 103.9735114 21.11328125 101.0625 C21.30688232 100.25852783 21.5004834 99.45455566 21.69995117 98.6262207 C21.90209229 97.75956787 22.1042334 96.89291504 22.3125 96 C24.15559484 88.34433397 26.12819373 80.74676625 28.30004883 73.17773438 C28.6869348 71.81630791 29.06309732 70.45178202 29.42773438 69.08422852 C29.83255375 67.60985009 30.28111862 66.14715909 30.75976562 64.69506836 C31.43981371 62.39123692 31.93084312 60.4025715 32 58 C30.38667538 55.33959607 29.32962814 53.94353892 27.125 51.9375 C26.63902344 51.45345703 26.15304688 50.96941406 25.65234375 50.47070312 C24.45894777 49.28900711 23.23252151 48.14082873 22 47 C26.24872538 40.27494651 30.55364102 33.59624684 35 27 C37.45005794 27.95661241 39.78054458 28.87364688 42.0625 30.1875 C44.59614266 31.24999531 45.43172478 30.9539308 48 30 C50.35137267 29.03507385 52.67487525 28.02842056 55 27 C57.35819809 30.31642844 59.68690088 33.65196786 62 37 C62.79857422 38.14082031 62.79857422 38.14082031 63.61328125 39.3046875 C64.07089844 39.98789062 64.52851563 40.67109375 65 41.375 C65.61875 42.28378906 65.61875 42.28378906 66.25 43.2109375 C67 45 67 45 66.8828125 46.984375 C65.37937776 50.41699592 62.41993023 52.40926378 59.6171875 54.8046875 C57.71536131 56.90539317 57.71536131 56.90539317 58.1171875 59.67578125 C58.40851563 60.77277344 58.69984375 61.86976563 59 63 C59.33964751 64.45416924 59.67809131 65.90861991 60.015625 67.36328125 C60.42356127 69.01389527 60.83519504 70.6635987 61.25 72.3125 C61.57834839 73.62287231 61.57834839 73.62287231 61.91333008 74.9597168 C63.73217234 82.12672101 65.75187558 89.22223095 67.88671875 96.30078125 C68.95755422 99.85896086 69.9871648 103.4250155 71 107 C87.26591283 77.63303521 87.67192752 32.49688243 90 0 C99.24361879 0.57658216 107.93679025 2.79964164 116.875 5.0625 C120.17698824 5.88979852 123.4805323 6.71063944 126.78515625 7.52734375 C128.04742287 7.83943787 128.04742287 7.83943787 129.33518982 8.15783691 C135.16031312 9.58424749 141.00305001 10.89182556 146.87109375 12.12890625 C147.6687616 12.29864456 148.46642944 12.46838287 149.28826904 12.64326477 C153.89969484 13.6231221 153.89969484 13.6231221 158.51873779 14.56619263 C172.8762061 17.43772703 187.05238512 21.81871816 198 32 C199.05960937 32.97646484 199.05960937 32.97646484 200.140625 33.97265625 C204.31097196 37.98082305 208.03205317 42.02150854 211 47 C210.68151421 50.41919951 209.26781411 52.11668047 206.89453125 54.50390625 C206.24790527 55.15665527 205.6012793 55.8094043 204.93505859 56.48193359 C203.88439209 57.51181396 203.88439209 57.51181396 202.8125 58.5625 C202.09143066 59.27486816 201.37036133 59.98723633 200.62744141 60.72119141 C194.65191704 66.53673904 188.41411125 71.81160722 181.70019531 76.74853516 C180.00363496 77.99732441 178.32604025 79.26887103 176.6484375 80.54296875 C167.61433001 87.30321188 158.00575992 92.80989121 148 98 C146.87682373 98.58612061 146.87682373 98.58612061 145.73095703 99.18408203 C114.43945769 115.30681564 80.39698803 122.45916021 45.375 122.3125 C44.44802307 122.31034485 43.52104614 122.3081897 42.565979 122.30596924 C28.8532609 122.25482554 15.45144438 121.90632016 2 119 C0.56116455 118.69400879 0.56116455 118.69400879 -0.90673828 118.38183594 C-42.42067002 109.2975642 -79.82863266 89.79089344 -110.51904297 60.40917969 C-111.94661605 59.0507966 -113.39677416 57.71627066 -114.84765625 56.3828125 C-115.68167969 55.59648437 -116.51570313 54.81015625 -117.375 54 C-118.10460937 53.319375 -118.83421875 52.63875 -119.5859375 51.9375 C-121 50 -121 50 -120.921875 48.01953125 C-114.51677993 33.98803061 -100.19476866 24.81459318 -86.48266602 19.22705078 C-80.71145361 17.19367444 -74.79934707 15.95365307 -68.81912231 14.71707153 C-64.88449429 13.90268947 -60.95827268 13.04939032 -57.03125 12.19921875 C-56.21725235 12.02382065 -55.4032547 11.84842255 -54.56459045 11.66770935 C-43.58248601 9.28465349 -32.6802589 6.57001379 -21.76977539 3.88183594 C-20.64067749 3.60396492 -20.64067749 3.60396492 -19.48876953 3.32048035 C-18.08829844 2.9753696 -16.68812766 2.62903673 -15.28833008 2.28120422 C-10.09780318 0.99840568 -5.36754585 -0.15335845 0 0 Z " fill="#464646" transform="translate(211,358)"/>
<path d="M0 0 C0.6810379 0.00626404 1.36207581 0.01252808 2.06375122 0.01898193 C22.37408268 0.21019826 40.63772241 2.35437954 57.6875 14.3125 C58.91339844 15.15361328 58.91339844 15.15361328 60.1640625 16.01171875 C71.00155834 24.01401831 81.60009481 37.52453188 85.359375 50.66015625 C85.81675506 54.35731172 85.8717688 58.03088508 85.875 61.75 C85.88724609 62.48798828 85.89949219 63.22597656 85.91210938 63.98632812 C85.92781065 69.87430743 85.01645597 74.31906604 81.6875 79.3125 C81.35910363 81.87825252 81.35910363 81.87825252 81.36865234 84.79370117 C81.34878265 85.91463669 81.32891296 87.0355722 81.30844116 88.19047546 C81.29688995 89.39992325 81.28533875 90.60937103 81.2734375 91.85546875 C81.25407135 93.09420242 81.2347052 94.3329361 81.2147522 95.60920715 C81.16506593 98.89875175 81.12380718 102.18826125 81.08660889 105.47796631 C81.04656688 108.83632525 80.99547549 112.19451406 80.9453125 115.55273438 C80.84917834 122.13922296 80.76517297 128.72576888 80.6875 135.3125 C75.4075 135.3125 70.1275 135.3125 64.6875 135.3125 C64.6875 116.8325 64.6875 98.3525 64.6875 79.3125 C60.7275 79.3125 56.7675 79.3125 52.6875 79.3125 C48.37208375 78.21790508 44.63200172 76.36166315 40.6875 74.3125 C39.90632813 73.92449219 39.12515625 73.53648437 38.3203125 73.13671875 C32.35920361 69.71067218 28.58773155 64.79755287 24.57983398 59.33813477 C24.14614502 58.74959717 23.71245605 58.16105957 23.265625 57.5546875 C22.88825195 57.0272998 22.51087891 56.49991211 22.12207031 55.95654297 C18.45173806 51.71735682 18.45173806 51.71735682 13.21386719 49.93566895 C10.04058191 49.76870295 6.88863061 49.73288635 3.7109375 49.73828125 C2.54873688 49.72411667 1.38653625 49.70995209 0.18911743 49.69535828 C-3.51984935 49.65345477 -7.22832979 49.63821614 -10.9375 49.625 C-14.65358501 49.59595308 -18.36954644 49.56142214 -22.08554077 49.52250671 C-24.39702779 49.50000637 -26.70859135 49.48419491 -29.02017212 49.47566223 C-30.06490692 49.46862778 -31.10964172 49.46159332 -32.18603516 49.4543457 C-33.56572983 49.44912651 -33.56572983 49.44912651 -34.97329712 49.44380188 C-37.3125 49.3125 -37.3125 49.3125 -40.3125 48.3125 C-40.35375 49.22 -40.395 50.1275 -40.4375 51.0625 C-41.83892808 60.54613657 -47.99315048 70.25377658 -55.3125 76.3125 C-57.6225 77.3025 -59.9325 78.2925 -62.3125 79.3125 C-62.6425 97.7925 -62.9725 116.2725 -63.3125 135.3125 C-68.5925 135.3125 -73.8725 135.3125 -79.3125 135.3125 C-79.3218457 133.62769531 -79.33119141 131.94289062 -79.34082031 130.20703125 C-79.37646776 124.61492707 -79.43034124 119.02319304 -79.49640274 113.43136597 C-79.53576475 110.04390644 -79.56800766 106.65670245 -79.58349609 103.26904297 C-79.60497832 99.36643834 -79.65166004 95.46481051 -79.703125 91.5625 C-79.70435364 90.35698486 -79.70558228 89.15146973 -79.70684814 87.90942383 C-79.82896815 80.84567348 -80.71527863 76.39289733 -84.3125 70.3125 C-87.21819694 60.48471039 -86.72150756 46.86506432 -82.57421875 37.56640625 C-78.14577153 29.65552685 -72.20543457 22.17565549 -63.3125 19.3125 C-60.55859375 19.08203125 -60.55859375 19.08203125 -57.75 19.125 C-56.82058594 19.13144531 -55.89117187 19.13789062 -54.93359375 19.14453125 C-52.58611898 19.29496555 -50.56195456 19.65089572 -48.3125 20.3125 C-48.06628906 19.57128906 -47.82007813 18.83007812 -47.56640625 18.06640625 C-44.56335678 11.47092376 -37.58372053 6.70563483 -30.92041016 4.19189453 C-20.62313021 0.7196232 -10.81725978 -0.14808113 0 0 Z " fill="#222121" transform="translate(255.3125,88.6875)"/>
<path d="M0 0 C9.24361879 0.57658216 17.93679025 2.79964164 26.875 5.0625 C30.17698824 5.88979852 33.4805323 6.71063944 36.78515625 7.52734375 C37.62666733 7.73540649 38.46817841 7.94346924 39.33518982 8.15783691 C45.16031312 9.58424749 51.00305001 10.89182556 56.87109375 12.12890625 C57.6687616 12.29864456 58.46642944 12.46838287 59.28826904 12.64326477 C63.89969484 13.6231221 63.89969484 13.6231221 68.51873779 14.56619263 C82.8762061 17.43772703 97.05238512 21.81871816 108 32 C108.70640625 32.65097656 109.4128125 33.30195313 110.140625 33.97265625 C114.31097196 37.98082305 118.03205317 42.02150854 121 47 C120.68151421 50.41919951 119.26781411 52.11668047 116.89453125 54.50390625 C116.24790527 55.15665527 115.6012793 55.8094043 114.93505859 56.48193359 C113.88439209 57.51181396 113.88439209 57.51181396 112.8125 58.5625 C112.09143066 59.27486816 111.37036133 59.98723633 110.62744141 60.72119141 C104.65191704 66.53673904 98.41411125 71.81160722 91.70019531 76.74853516 C90.00363496 77.99732441 88.32604025 79.26887103 86.6484375 80.54296875 C77.61433001 87.30321188 68.00575992 92.80989121 58 98 C57.25121582 98.39074707 56.50243164 98.78149414 55.73095703 99.18408203 C31.92775321 111.44852197 4.90800253 120.19770311 -22 121 C-21.8141333 120.38294189 -21.6282666 119.76588379 -21.43676758 119.13012695 C-9.66960212 79.89052837 -2.92655445 40.85091716 0 0 Z " fill="#464646" transform="translate(301,358)"/>
<path d="M0 0 C6.78253855 -0.42878117 12.93373987 1.16664984 19.5 2.75 C21.23950928 3.16270142 21.23950928 3.16270142 23.01416016 3.58374023 C26.34528701 4.37916025 29.67302744 5.18740453 33 6 C33.81823242 6.19674316 34.63646484 6.39348633 35.47949219 6.59619141 C54.70047486 11.2455794 69.80413383 18.9616887 82.125 34.8125 C84 38 84 38 83.8112793 39.98022461 C82.85206752 42.36829534 81.70751772 43.68026858 79.89453125 45.50390625 C79.24790527 46.15665527 78.6012793 46.8094043 77.93505859 47.48193359 C77.23461426 48.16852051 76.53416992 48.85510742 75.8125 49.5625 C75.09143066 50.27486816 74.37036133 50.98723633 73.62744141 51.72119141 C67.65191704 57.53673904 61.41411125 62.81160722 54.70019531 67.74853516 C53.00363496 68.99732441 51.32604025 70.26887103 49.6484375 71.54296875 C37.86642295 80.35863181 24.96058266 87.20574263 11.75 93.625 C11.0593042 93.96805176 10.3686084 94.31110352 9.65698242 94.66455078 C5.6027302 96.5782416 2.4786841 97.37554183 -2 97 C-4.21890658 90.63080873 -6.09484056 84.2248901 -7.75 77.6875 C-7.98332031 76.80771484 -8.21664063 75.92792969 -8.45703125 75.02148438 C-8.67230469 74.17263672 -8.88757813 73.32378906 -9.109375 72.44921875 C-9.40279785 71.30972778 -9.40279785 71.30972778 -9.70214844 70.1472168 C-10.05461253 67.60629736 -10.07191191 66.34743206 -9 64 C-6.59155273 61.98535156 -6.59155273 61.98535156 -3.43359375 59.890625 C-2.60336449 59.33311554 -2.60336449 59.33311554 -1.75636292 58.76434326 C0.00962139 57.58202844 1.78568892 56.41596471 3.5625 55.25 C4.76306925 54.45026779 5.96294812 53.64949814 7.16210938 52.84765625 C10.10016331 50.88634491 13.04746774 48.93946736 16 47 C13.60862951 39.46732498 11.04185957 32.03540245 8.21875 24.65234375 C7.97175858 24.0061055 7.72476715 23.35986725 7.47029114 22.69404602 C6.20826139 19.39858909 4.93776068 16.10660069 3.65893555 12.81762695 C2.95184448 10.98204224 2.95184448 10.98204224 2.23046875 9.109375 C1.80145264 8.00561523 1.37243652 6.90185547 0.93041992 5.76464844 C0 3 0 3 0 0 Z " fill="#232322" transform="translate(338,367)"/>
<path d="M0 0 C-0.62440606 4.86772228 -2.0534401 9.19887849 -3.8359375 13.7421875 C-4.25596542 14.83299118 -4.25596542 14.83299118 -4.68447876 15.9458313 C-5.57599617 18.25765361 -6.47528989 20.56635543 -7.375 22.875 C-7.97188515 24.41776342 -8.56824426 25.96073047 -9.1640625 27.50390625 C-10.00875684 29.69123018 -10.85414618 31.8782507 -11.70370483 34.06369019 C-13.504327 38.6963328 -15.26200716 43.34347862 -17 48 C-16.2790918 48.26570801 -15.55818359 48.53141602 -14.81542969 48.80517578 C-9.92770827 50.87944812 -5.66404916 53.95017121 -1.25 56.875 C-0.27933594 57.50019531 0.69132812 58.12539063 1.69140625 58.76953125 C2.61308594 59.37925781 3.53476563 59.98898437 4.484375 60.6171875 C5.32709961 61.17003418 6.16982422 61.72288086 7.03808594 62.29248047 C9 64 9 64 9.87182617 65.79272461 C10.05563002 68.95800191 9.33854044 71.62714585 8.56640625 74.69921875 C8.40961899 75.33487259 8.25283173 75.97052643 8.09129333 76.6254425 C7.59042534 78.64842196 7.0768361 80.66790724 6.5625 82.6875 C6.05458688 84.7184327 5.54924427 86.74999051 5.04441833 88.7816925 C4.5866215 90.61812608 4.12267541 92.45302343 3.65844727 94.2878418 C2.9606795 96.69680503 2.9606795 96.69680503 3 98 C-3.96333593 97.57708553 -9.54515143 94.71843333 -15.75 91.6875 C-16.85384033 91.15133057 -17.95768066 90.61516113 -19.0949707 90.06274414 C-39.45057883 79.98572498 -57.15346953 67.07689443 -73.51904297 51.40917969 C-74.94661605 50.0507966 -76.39677416 48.71627066 -77.84765625 47.3828125 C-78.68167969 46.59648437 -79.51570313 45.81015625 -80.375 45 C-81.10460937 44.319375 -81.83421875 43.63875 -82.5859375 42.9375 C-84 41 -84 41 -83.921875 39.01953125 C-77.55124968 25.06354273 -63.27859153 15.83534841 -49.63208008 10.26220703 C-42.40654142 7.75121457 -34.91438279 6.31132926 -27.4375 4.75 C-24.98059043 4.22570509 -22.52438868 3.69821126 -20.06837463 3.16973877 C-18.55321293 2.8449098 -17.03739737 2.5231116 -15.52085876 2.20477295 C-4.66196786 -0.08796166 -4.66196786 -0.08796166 0 0 Z " fill="#232322" transform="translate(174,367)"/>
<path d="M0 0 C2.45005794 0.95661241 4.78054458 1.87364688 7.0625 3.1875 C9.59614266 4.24999531 10.43172478 3.9539308 13 3 C15.35137267 2.03507385 17.67487525 1.02842056 20 0 C22.35819809 3.31642844 24.68690088 6.65196786 27 10 C27.53238281 10.76054687 28.06476563 11.52109375 28.61328125 12.3046875 C29.29970703 13.32949219 29.29970703 13.32949219 30 14.375 C30.4125 14.98085938 30.825 15.58671875 31.25 16.2109375 C32 18 32 18 31.8828125 19.984375 C30.37937776 23.41699592 27.41993023 25.40926378 24.6171875 27.8046875 C22.71536131 29.90539317 22.71536131 29.90539317 23.1171875 32.67578125 C23.40851563 33.77277344 23.69984375 34.86976563 24 36 C24.33964751 37.45416924 24.67809131 38.90861991 25.015625 40.36328125 C25.42356127 42.01389527 25.83519504 43.6635987 26.25 45.3125 C26.46889893 46.18608154 26.68779785 47.05966309 26.91333008 47.9597168 C28.73217234 55.12672101 30.75187558 62.22223095 32.88671875 69.30078125 C35.67812837 78.57609672 37.61427914 85.12638628 33 94 C30.73394512 95.13302744 29.48055189 95.13217607 26.96508789 95.14526367 C25.71853172 95.15483345 25.71853172 95.15483345 24.4467926 95.16459656 C23.54782761 95.16570938 22.64886261 95.1668222 21.72265625 95.16796875 C20.80036728 95.17129715 19.87807831 95.17462555 18.92784119 95.17805481 C16.97509257 95.1831227 15.02233527 95.18546318 13.06958008 95.18530273 C10.07814296 95.18748857 7.08707491 95.20564391 4.09570312 95.22460938 C2.2005221 95.22754342 0.30533931 95.22952814 -1.58984375 95.23046875 C-2.48678452 95.23765427 -3.38372528 95.24483978 -4.30784607 95.25224304 C-5.14203568 95.24916641 -5.97622528 95.24608978 -6.83569336 95.24291992 C-7.5691246 95.24434494 -8.30255585 95.24576996 -9.05821228 95.24723816 C-11 95 -11 95 -14 93 C-16.94404129 87.73171558 -16.58777443 81.74322048 -15.1171875 76.0546875 C-14.71324092 74.6584918 -14.29865808 73.26534136 -13.875 71.875 C-13.41715383 70.30101807 -12.96016314 68.72678711 -12.50390625 67.15234375 C-12.26043457 66.32331543 -12.01696289 65.49428711 -11.76611328 64.64013672 C-10.39648675 59.92020642 -9.10668335 55.17855978 -7.8125 50.4375 C-7.56290527 49.53435059 -7.31331055 48.63120117 -7.05615234 47.70068359 C-6.58111636 45.96742689 -6.11733135 44.23103896 -5.66601562 42.49145508 C-5.22346067 40.83592967 -4.7377034 39.19133311 -4.20898438 37.5612793 C-3.54038585 35.2971831 -3.0499308 33.36101343 -3 31 C-4.61332462 28.33959607 -5.67037186 26.94353892 -7.875 24.9375 C-8.36097656 24.45345703 -8.84695312 23.96941406 -9.34765625 23.47070312 C-10.54105223 22.28900711 -11.76747849 21.14082873 -13 20 C-8.75127462 13.27494651 -4.44635898 6.59624684 0 0 Z " fill="#E7022E" transform="translate(246,385)"/>
<path d="M0 0 C2.23828125 1.80078125 2.23828125 1.80078125 4.3125 4.3125 C5.07691406 5.22 5.84132812 6.1275 6.62890625 7.0625 C7.41136719 8.031875 8.19382813 9.00125 9 10 C10.18916016 11.4540625 10.18916016 11.4540625 11.40234375 12.9375 C12.89805961 14.76919197 14.38476417 16.60830619 15.859375 18.45703125 C18.10659805 21.12663381 20.50099504 23.56652839 23 26 C21.72199484 29.44955334 20.23881563 32.38090029 18.1796875 35.42578125 C17.64472656 36.22177734 17.10976562 37.01777344 16.55859375 37.83789062 C16.00300781 38.65451172 15.44742188 39.47113281 14.875 40.3125 C14.31167969 41.14845703 13.74835938 41.98441406 13.16796875 42.84570312 C11.78279211 44.89999052 10.39337781 46.95127038 9 49 C9.94621389 50.11863005 10.89454286 51.23547123 11.84375 52.3515625 C12.37162109 52.97369629 12.89949219 53.59583008 13.44335938 54.23681641 C15.09616406 56.16084285 15.09616406 56.16084285 17.5 58.375 C19.77612386 62.35821675 18.09078439 65.77614371 17 70 C16.75362793 70.99193359 16.50725586 71.98386719 16.25341797 73.00585938 C15.41427911 76.36241481 14.55442253 79.71301593 13.6875 83.0625 C13.22718384 84.8420105 13.22718384 84.8420105 12.75756836 86.6574707 C10.4371283 95.53244371 7.89289204 104.29466128 5 113 C-13.1064991 85.84025135 -13.07637001 33.19595991 -15 2 C-4.39227731 -0.64014431 -4.39227731 -0.64014431 0 0 Z " fill="#90A3AC" transform="translate(225,355)"/>
<path d="M0 0 C1.85546875 0.0859375 1.85546875 0.0859375 4.1875 0.375 C5.32251953 0.51035156 5.32251953 0.51035156 6.48046875 0.6484375 C9.33005335 1.04605396 12.16275737 1.52286171 15 2 C13.55875728 22.50948163 11.9995133 42.80132251 8 63 C7.77940918 64.14903809 7.55881836 65.29807617 7.33154297 66.48193359 C4.29618462 82.23033236 0.72440968 97.67079838 -4 113 C-6.30721393 109.5391791 -7.19827178 106.15167348 -8.25 102.1875 C-8.46180908 101.40793945 -8.67361816 100.62837891 -8.8918457 99.82519531 C-9.59945097 97.21809376 -10.29962396 94.60905218 -11 92 C-11.79645999 89.05453534 -12.59507309 86.1096702 -13.39550781 83.1652832 C-13.91396779 81.25685824 -14.43032637 79.34786085 -14.94433594 77.43823242 C-15.18313477 76.55627197 -15.42193359 75.67431152 -15.66796875 74.765625 C-15.89274902 73.93482422 -16.1175293 73.10402344 -16.34912109 72.24804688 C-16.89490919 70.3629693 -17.55393581 68.5111883 -18.23828125 66.671875 C-19.12281339 63.56920842 -19.12216342 62.01891751 -18 59 C-16.00904332 56.81903501 -13.8566917 54.98428907 -11.6171875 53.0625 C-9.7146711 51.12479423 -9.7146711 51.12479423 -10.22875977 48.64770508 C-11.0421319 45.85535916 -12.08607987 43.9687884 -13.72265625 41.57421875 C-14.26083984 40.77822266 -14.79902344 39.98222656 -15.35351562 39.16210938 C-16.19946289 37.93717773 -16.19946289 37.93717773 -17.0625 36.6875 C-17.63033203 35.85154297 -18.19816406 35.01558594 -18.78320312 34.15429688 C-20.18162031 32.09780101 -21.58733754 30.04672458 -23 28 C-21.22502243 24.19878771 -18.80977256 21.4503973 -15.9375 18.4375 C-11.29363921 13.47978146 -6.93752185 8.37780743 -2.6796875 3.08203125 C-1 1 -1 1 0 0 Z " fill="#91A3AC" transform="translate(287,355)"/>
<path d="M0 0 C1.71896484 0.41572266 1.71896484 0.41572266 3.47265625 0.83984375 C5.0025644 1.20589539 6.53251457 1.57177147 8.0625 1.9375 C8.81466797 2.11990234 9.56683594 2.30230469 10.34179688 2.49023438 C28.90059934 6.90899687 45.83150639 4.92063369 64 0 C64.67542927 4.65295718 65.04739998 7.48708892 62.3125 11.4375 C60.76586882 13.11301711 59.18679436 14.75898003 57.58203125 16.37890625 C54.15477849 19.85800852 51.18304483 23.64273824 48.140625 27.45703125 C46 30 46 30 43.171875 32.57421875 C42.45515625 33.37472656 41.7384375 34.17523438 41 35 C41.04497842 37.27523089 41.04497842 37.27523089 42 39 C35.06386511 43.97405207 35.06386511 43.97405207 31.4375 44.0625 C28.11715727 42.61517112 25.09666188 40.88228467 22 39 C22.2151123 38.40324463 22.43022461 37.80648926 22.65185547 37.19165039 C22.76674316 36.46840576 22.88163086 35.74516113 23 35 C21.11491719 32.62091639 19.26266901 30.56790494 17.125 28.4375 C15.92054035 27.1939547 14.7187371 25.9478313 13.51953125 24.69921875 C12.92221191 24.07966309 12.32489258 23.46010742 11.70947266 22.82177734 C8.50938858 19.4114621 5.62172506 15.76490935 2.70703125 12.109375 C1.02324802 9.9533522 1.02324802 9.9533522 -1 8 C-0.96712417 5.27130593 -0.43602229 2.7033382 0 0 Z " fill="#FEAA90" transform="translate(224,346)"/>
<path d="M0 0 C0 4.95 0 9.9 0 15 C2.64 15 5.28 15 8 15 C8 30.84 8 46.68 8 63 C-1.54540612 63 -9.13671972 59.79103522 -16 53 C-22.71578524 43.85700192 -25.08666484 35.30131429 -24 24 C-23.10767452 20.67405958 -21.78969012 17.93263863 -20 15 C-19.57589844 14.30132812 -19.15179688 13.60265625 -18.71484375 12.8828125 C-14.70885557 6.96867953 -7.63804508 0 0 0 Z " fill="#EA7860" transform="translate(176,209)"/>
<path d="M0 0 C8.72114577 1.45352429 13.86827311 5.96220313 19 13 C23.68003836 21.35721135 24.48048152 30.4716116 22.3515625 39.859375 C19.03276531 48.99315873 12.70808551 55.75759937 4 60 C-0.41599802 61.57179591 -3.25206857 62 -8 62 C-8 46.16 -8 30.32 -8 14 C-5.36 14 -2.72 14 0 14 C0 9.38 0 4.76 0 0 Z " fill="#EA7760" transform="translate(336,210)"/>
<path d="M0 0 C1.155 0.433125 2.31 0.86625 3.5 1.3125 C24.25832591 8.14517781 43.34271113 6.57277373 64 0 C64 5.61 64 11.22 64 17 C48.03048032 23.38780787 31.81751825 24.57915591 14.9375 21.6875 C13.90254395 21.51118042 13.90254395 21.51118042 12.84667969 21.33129883 C8.06716333 20.42133008 4.62734429 18.98314755 0 17 C0 11.39 0 5.78 0 0 Z " fill="#EA7760" transform="translate(224,329)"/>
<path d="M0 0 C2.45005794 0.95661241 4.78054458 1.87364688 7.0625 3.1875 C9.59614266 4.24999531 10.43172478 3.9539308 13 3 C15.35137267 2.03507385 17.67487525 1.02842056 20 0 C22.35819809 3.31642844 24.68690088 6.65196786 27 10 C27.53238281 10.76054687 28.06476563 11.52109375 28.61328125 12.3046875 C29.29970703 13.32949219 29.29970703 13.32949219 30 14.375 C30.4125 14.98085938 30.825 15.58671875 31.25 16.2109375 C32.25625981 18.61128642 31.94519221 19.59157754 31 22 C28.91898446 26.1346493 26.2734258 29.15383016 22 31 C13.82009424 32.76576487 2.51402803 33.90265325 -5.12597656 29.88085938 C-8.58655503 27.1429484 -10.88954756 23.88071254 -13 20 C-8.75127462 13.27494651 -4.44635898 6.59624684 0 0 Z " fill="#BF0F28" transform="translate(246,385)"/>
<path d="M0 0 C2.02921471 2.60352076 3.73322654 5.18530294 5.26171875 8.109375 C5.65810547 8.86347656 6.05449219 9.61757813 6.46289062 10.39453125 C6.86701172 11.17183594 7.27113281 11.94914062 7.6875 12.75 C8.10322266 13.54277344 8.51894531 14.33554687 8.94726562 15.15234375 C9.96798342 17.09992023 10.98441742 19.04974079 12 21 C13.98 18.03 15.96 15.06 18 12 C22.2761911 13.06904777 23.40561585 13.91269807 26.375 17 C27.10460937 17.721875 27.83421875 18.44375 28.5859375 19.1875 C30.75764704 23.50692228 29.32103071 26.51728034 28 31 C27.47780641 33.07289915 26.96124499 35.14722228 26.44921875 37.22265625 C25.86476066 39.50331878 25.27742296 41.78324492 24.6875 44.0625 C24.22718384 45.8420105 24.22718384 45.8420105 23.75756836 47.6574707 C21.4371283 56.53244371 18.89289204 65.29466128 16 74 C8.24392699 62.36589049 6.94955852 44.5969387 4.1875 31 C4.03479645 30.26136719 3.8820929 29.52273438 3.72476196 28.76171875 C1.75040795 19.15665244 0.42493848 9.8173431 0 0 Z " fill="#C9CBCD" transform="translate(214,394)"/>
<path d="M0 0 C3.23751178 9.48746767 -1.90108903 23.42104188 -3.75 33 C-3.94209045 33.996828 -3.94209045 33.996828 -4.13806152 35.01379395 C-5.88210812 44.00383013 -7.84228935 52.91073349 -10.25 61.75 C-10.61883301 63.10544922 -10.61883301 63.10544922 -10.99511719 64.48828125 C-12.03427178 68.15183868 -12.86238936 70.79358403 -15 74 C-17.08551016 67.1776121 -19.02484214 60.32708249 -20.875 53.4375 C-22.97561884 45.65195717 -25.15812764 37.89972995 -27.52685547 30.19116211 C-28.38844307 27.3409391 -29 24.99803646 -29 22 C-27.3203125 20.24609375 -27.3203125 20.24609375 -25.125 18.4375 C-24.04605469 17.53837891 -24.04605469 17.53837891 -22.9453125 16.62109375 C-21.98238281 15.81865234 -21.98238281 15.81865234 -21 15 C-20.34 14.34 -19.68 13.68 -19 13 C-18.01 13 -17.02 13 -16 13 C-14.61328125 14.75 -14.61328125 14.75 -13.3125 17 C-12.65701172 18.11375 -12.65701172 18.11375 -11.98828125 19.25 C-11.49908203 20.11625 -11.49908203 20.11625 -11 21 C-9.35383182 17.87517628 -7.70812246 14.75011114 -6.0625 11.625 C-5.59392578 10.73554688 -5.12535156 9.84609375 -4.64257812 8.9296875 C-4.19462891 8.07890625 -3.74667969 7.228125 -3.28515625 6.3515625 C-2.66459351 5.17327881 -2.66459351 5.17327881 -2.03149414 3.97119141 C-1.34211376 2.65378141 -0.66495329 1.32990658 0 0 Z " fill="#C9CBCE" transform="translate(297,394)"/>
</svg>
